<svg width="310" height="100" viewBox="0 0 310 100" fill="none" xmlns="http://www.w3.org/2000/svg">
<path d="M41 89.5918C63.0914 89.5918 81 71.7746 81 49.7959C81 27.8172 63.0914 10 41 10C18.9086 10 1 27.8172 1 49.7959C1 71.7746 18.9086 89.5918 41 89.5918Z" fill="#2A34F3"/>
<path d="M7.4704 51.0746C8.1692 50.4748 8.80977 49.7959 9.57328 49.295C15.9919 45.0768 22.43 40.8916 28.868 36.6998C30.5115 35.632 31.0938 36.0011 31.3785 37.9455C31.702 40.1402 30.9774 41.5836 29.0945 42.7107C26.351 44.3584 23.724 46.1973 21.0582 47.9702C20.4241 48.3921 19.7965 48.8271 19.2336 49.3411C18.4377 50.0661 18.483 50.6198 19.3306 51.2986C19.6671 51.5689 20.0359 51.8193 20.4177 52.0171C25.4193 54.6007 30.4144 57.1909 35.4355 59.7284C37.2148 60.6314 37.8166 60.2096 37.6677 58.1532C37.4154 54.7523 37.0725 51.358 36.736 47.9702C36.296 43.5082 35.8431 39.0461 35.3449 34.5907C35.1766 33.0682 35.7331 32.0795 36.9236 31.1766C38.7871 29.7595 40.4241 29.5882 42.6111 30.7614C52.3491 35.9748 62.1841 40.9773 71.9867 46.0721C72.6079 46.395 73.2226 46.7509 73.8049 47.1464C74.4778 47.6077 74.5167 47.99 73.8955 48.5173C73.2161 49.0973 72.485 49.6311 71.7409 50.1189C65.1346 54.4952 58.5218 58.8584 51.8961 63.2084C50.2397 64.2959 49.7609 64.0586 49.3921 62.0682C49.3145 61.6332 49.2692 61.1982 49.2109 60.7632C49.0621 59.6889 49.3727 58.7859 50.2591 58.1664C52.1744 56.8284 54.1026 55.5102 56.0307 54.1986C57.8036 52.9925 59.5895 51.8061 61.3688 50.6066C61.6147 50.4418 61.8541 50.2573 62.0806 50.0596C63.0317 49.2093 63.0188 48.4777 61.9317 47.845C60.2947 46.8893 58.6189 46.0061 56.9366 45.1296C52.8861 43.0073 48.8292 40.8982 44.7593 38.8089C44.3128 38.5782 43.7952 38.4727 43.297 38.3871C42.6952 38.2816 42.3458 38.6046 42.3717 39.2175C42.417 40.3709 42.4688 41.5243 42.5852 42.6711C43.3682 50.2507 44.1511 57.8236 44.9664 65.3966C45.1411 67.0114 44.6881 68.2043 43.2193 68.9227C42.8117 69.1271 42.417 69.3577 42.0159 69.5818C41.8023 69.5818 41.5823 69.5818 41.3688 69.5818C40.4371 69.1666 39.4859 68.7909 38.5801 68.323C33.9926 65.9568 29.4115 63.5841 24.8369 61.1916C19.4989 58.3971 14.1673 55.5827 8.84859 52.7486C8.32449 52.4718 7.91686 51.9643 7.45746 51.5689C7.4704 51.4041 7.4704 51.2393 7.4704 51.0746Z" fill="white"/>
<path d="M107.067 49.9684C107.067 42.6453 107.06 35.3293 107.082 28.0061C107.082 27.3167 106.913 27.1338 106.215 27.1409C103.012 27.1831 99.801 27.1761 96.5973 27.1409C95.9777 27.1338 95.8087 27.3027 95.8087 27.9217C95.8369 32.5365 95.8087 37.1512 95.8369 41.766C95.8439 42.4835 95.6679 42.7157 94.9216 42.6946C93.1895 42.6383 91.4503 42.6594 89.7112 42.6875C89.2042 42.6946 89 42.6102 89 42.0263C89.0211 34.7102 89.0211 27.3871 89 20.064C89 19.5223 89.1972 19.466 89.6548 19.466C104.04 19.4801 118.432 19.4801 132.817 19.459C133.429 19.459 133.514 19.663 133.514 20.2047C133.5 27.4363 133.493 34.668 133.514 41.8997C133.514 42.4906 133.408 42.7086 132.76 42.6946C130.993 42.6453 129.233 42.6524 127.466 42.6946C126.832 42.7086 126.691 42.5046 126.691 41.8997C126.712 37.2849 126.684 32.6701 126.719 28.0554C126.726 27.3167 126.522 27.1268 125.797 27.1409C122.53 27.1831 119.263 27.169 116.003 27.1479C115.489 27.1479 115.306 27.2323 115.306 27.8092C115.327 42.5961 115.327 57.383 115.306 72.1699C115.306 72.796 115.531 72.8734 116.059 72.8663C117.974 72.8382 119.882 72.8734 121.797 72.8452C122.368 72.8382 122.628 72.9226 122.607 73.5909C122.558 75.6802 122.572 77.7625 122.6 79.8518C122.607 80.3653 122.509 80.5482 121.938 80.5482C114.792 80.5271 107.638 80.5271 100.491 80.5482C99.9771 80.5482 99.8574 80.3935 99.8574 79.901C99.8785 77.7836 99.8926 75.6662 99.8503 73.5487C99.8362 72.9156 100.097 72.8382 100.625 72.8452C102.448 72.8734 104.272 72.8171 106.096 72.8734C106.849 72.8945 107.067 72.7327 107.067 71.9307C107.053 64.6076 107.067 57.2845 107.067 49.9684Z" fill="#1E1B1B"/>
<path d="M175.142 73.0831C175.156 72.471 174.938 72.3726 174.396 72.3796C172.748 72.4148 171.1 72.3514 169.453 72.4077C168.728 72.4359 168.537 72.26 168.537 71.5143C168.573 63.7832 168.566 56.0521 168.552 48.321C168.544 43.1082 165.51 38.8382 160.595 37.1077C157.279 35.9399 153.857 35.8133 150.414 36.2424C144.415 36.9951 140.113 40.1889 137.331 45.5071C137.148 45.8658 137.134 46.0206 137.613 46.1613C139.697 46.7593 141.767 47.4064 143.837 48.0607C144.217 48.1803 144.394 48.0958 144.591 47.7511C146.534 44.3323 149.512 42.8972 153.399 43.1083C156.863 43.2912 159.539 45.1342 160.496 48.2014C161.384 51.0293 160.813 53.9346 160.989 56.8611C159.912 56.2631 158.976 55.7214 158.025 55.215C157.067 54.7085 156.054 54.3145 155.011 53.9979C145.548 51.1137 136.627 57.5927 136.634 67.3428C136.641 76.9592 146.21 83.2411 155.033 79.4072C157.567 78.3098 159.701 76.6215 161.855 74.6518C161.855 76.3049 161.869 77.7682 161.848 79.2384C161.841 79.6957 161.961 79.8293 162.433 79.8293C166.467 79.8082 170.495 79.8082 174.529 79.8293C175.05 79.8293 175.156 79.6675 175.149 79.1821C175.114 77.135 175.1 75.109 175.142 73.0831ZM158.856 70.8601C156.342 72.6961 153.653 74.082 150.449 73.9905C146.182 73.8709 143.246 70.2481 143.929 66.0413C144.633 61.7009 148.083 59.2669 152.547 59.9282C155.638 60.3854 158.264 61.7713 160.623 63.748C160.905 63.9872 160.989 64.2334 160.982 64.5852C160.961 65.2605 160.975 65.9358 160.975 66.6111C161.616 68.6934 160.313 69.7908 158.856 70.8601Z" fill="#1E1B1B"/>
<path d="M207.434 44.8611C205.315 44.8611 203.407 44.84 201.506 44.8752C200.928 44.8892 200.766 44.7275 200.773 44.1436C200.809 42.2934 200.802 40.4363 200.78 38.5862C200.773 38.1359 200.886 37.9953 201.358 37.9953C208.04 38.0093 214.722 38.0093 221.397 37.9953C221.854 37.9953 221.995 38.1078 221.988 38.5791C221.96 40.4574 221.96 42.3427 221.988 44.221C221.995 44.7134 221.868 44.8752 221.354 44.8681C219.798 44.833 218.235 44.8681 216.679 44.847C216.271 44.84 215.975 44.9596 215.665 45.248C211.236 49.3703 206.793 53.4786 202.344 57.5869C201.984 57.9175 201.801 58.1215 202.231 58.5999C206.392 63.1935 210.532 67.8153 214.644 72.4512C215.102 72.9647 215.567 73.1476 216.236 73.1335C217.855 73.0913 219.475 73.1406 221.094 73.1124C221.622 73.1054 221.861 73.1757 221.847 73.8018C221.798 75.8278 221.805 77.8608 221.847 79.8868C221.861 80.4777 221.65 80.541 221.143 80.541C218.32 80.5199 215.496 80.5129 212.666 80.5481C212.138 80.5551 211.87 80.3089 211.574 79.9712C205.385 73.0913 199.196 66.2114 193 59.3174C192.704 59.4651 192.852 59.7324 192.852 59.9224C192.838 64.0658 192.859 68.2163 192.831 72.3597C192.824 72.9717 192.972 73.1546 193.598 73.1265C195.007 73.0772 196.422 73.1476 197.837 73.0913C198.45 73.0702 198.548 73.2812 198.541 73.83C198.513 75.8278 198.513 77.8257 198.541 79.8305C198.548 80.337 198.471 80.534 197.886 80.534C191.557 80.5129 185.234 80.5129 178.904 80.527C178.39 80.527 178.263 80.3792 178.27 79.8868C178.298 77.8257 178.298 75.7715 178.27 73.7104C178.263 73.1757 178.467 73.0913 178.932 73.0983C180.784 73.1194 182.643 73.0843 184.494 73.1194C185.1 73.1335 185.276 72.9928 185.269 72.3597C185.241 67.7731 185.255 63.1865 185.255 58.5999C185.255 48.3081 185.248 38.0164 185.269 27.7246C185.269 27.0563 185.128 26.8382 184.424 26.8593C182.6 26.9156 180.777 26.8664 178.953 26.8875C178.502 26.8945 178.355 26.782 178.362 26.3106C178.39 24.2213 178.39 22.1391 178.362 20.0498C178.355 19.5925 178.481 19.4589 178.946 19.4589C183.389 19.48 187.832 19.487 192.275 19.4518C192.972 19.4448 192.852 19.8247 192.852 20.2186C192.852 29.3004 192.852 38.3892 192.852 47.471C192.852 50.6155 192.852 53.76 192.852 56.9115C192.852 57.0452 192.852 57.1788 192.852 57.4884C197.732 53.2746 202.491 49.1452 207.434 44.8611Z" fill="#1E1B1B"/>
<path d="M259.999 66.7206C259.217 66.3056 258.851 66.3548 258.295 67.1005C255.33 71.0681 251.366 73.1433 246.353 73.1152C238.418 73.0659 234.594 67.1638 233.594 60.6497C233.538 60.2839 233.665 60.1713 234.01 60.1995C234.214 60.2136 234.418 60.1995 234.63 60.1995C244.663 60.1995 254.697 60.1924 264.73 60.2135C265.392 60.2135 265.688 60.094 265.603 59.3624C265.498 58.3986 265.512 57.4278 265.406 56.4641C264.85 51.2795 263.23 46.4889 259.801 42.465C255.542 37.4634 250.085 34.9731 243.508 35.6132C237.136 36.2393 232.306 39.609 228.863 44.9201C225.251 50.4986 224.441 56.661 225.603 63.0978C226.582 68.5215 229.137 73.0941 233.616 76.4215C238.861 80.3187 244.811 81.2754 251.106 80.0443C257.534 78.7922 262.28 75.099 265.624 69.4571C263.723 68.5567 261.829 67.6985 259.999 66.7206ZM233.834 53.608C234.545 50.1399 235.841 46.9743 238.664 44.6599C242.861 41.2199 249.078 41.5857 253.225 45.4688C255.549 47.6426 257.006 50.2876 257.76 53.3618C257.914 53.9949 257.724 54.0793 257.154 54.0723C253.387 54.0512 249.627 54.0582 245.86 54.0582C242.065 54.0582 238.277 54.0652 234.482 54.0512C234.193 54.0512 233.693 54.2763 233.834 53.608Z" fill="#1E1B1B"/>
<path d="M306.155 46.0403C299.269 32.9769 281.497 31.795 272.964 43.8384C267.394 51.7032 267.331 64.0842 272.823 72.0053C280.315 82.8036 295.594 83.4859 303.867 73.363C307.514 68.903 308.965 63.6692 309 59.5187C309 53.7784 308.12 49.7757 306.155 46.0403ZM297.453 68.2699C292.686 73.9821 284.455 73.764 279.941 67.8408C275.815 62.417 275.836 53.5322 279.998 48.1507C285.229 41.3903 294.861 42.34 298.945 50.0149C300.283 52.5333 300.868 55.2205 300.882 58.2736C300.839 61.8261 299.91 65.3224 297.453 68.2699Z" fill="#1E1B1B"/>
</svg>
